<?xml version="1.0" encoding="utf-8"?>
<!-- Generator: Adobe Illustrator 16.0.0, SVG Export Plug-In . SVG Version: 6.00 Build 0)  -->
<!DOCTYPE svg PUBLIC "-//W3C//DTD SVG 1.1//EN" "http://www.w3.org/Graphics/SVG/1.1/DTD/svg11.dtd">
<svg version="1.1" id="Layer_1" xmlns="http://www.w3.org/2000/svg" xmlns:xlink="http://www.w3.org/1999/xlink" x="0px" y="0px"
	 width="300px" height="58.17px" viewBox="0 0 300 58.17" enable-background="new 0 0 300 58.17" xml:space="preserve">
<g>
	<g>
		<path fill-rule="evenodd" clip-rule="evenodd" fill="#FFFFFF" d="M299.076,21.567c-0.617,1.118-1.479,1.984-2.593,2.6
			c-1.112,0.618-2.278,0.924-3.492,0.924c-1.215,0-2.381-0.306-3.492-0.924c-1.111-0.616-1.979-1.482-2.598-2.6
			c-0.619-1.114-0.931-2.278-0.931-3.486c0-1.222,0.313-2.394,0.942-3.517c0.631-1.127,1.506-1.991,2.63-2.595
			c1.116-0.606,2.271-0.907,3.448-0.907c1.176,0,2.324,0.3,3.45,0.907c1.121,0.604,1.995,1.468,2.62,2.595
			c0.628,1.123,0.938,2.295,0.938,3.517C300,19.29,299.689,20.454,299.076,21.567z M298.051,15.15
			c-0.526-0.944-1.253-1.664-2.187-2.167c-0.935-0.505-1.894-0.759-2.873-0.759c-0.987,0-1.944,0.254-2.875,0.759
			c-0.937,0.503-1.665,1.223-2.19,2.167c-0.525,0.938-0.795,1.917-0.795,2.931c0,1.011,0.264,1.979,0.782,2.905
			c0.515,0.927,1.237,1.648,2.166,2.166c0.931,0.517,1.9,0.777,2.912,0.777c1.009,0,1.98-0.261,2.908-0.777
			c0.934-0.518,1.655-1.239,2.167-2.166c0.517-0.926,0.771-1.894,0.771-2.905C298.838,17.067,298.576,16.088,298.051,15.15z
			 M295.264,19.896c0.26,1.095,0.445,1.851,0.596,2.153h-1.049c-0.128-0.223-0.3-0.895-0.509-1.873
			c-0.234-1.083-0.664-1.493-1.582-1.525h-0.957v3.398h-1.013v-7.73c0.513-0.104,1.26-0.175,1.943-0.175
			c1.083,0,1.794,0.211,2.28,0.652c0.386,0.338,0.619,0.875,0.619,1.493c0,1.023-0.663,1.709-1.481,1.987v0.037
			C294.707,18.521,295.068,19.081,295.264,19.896z M294.566,16.394c0-1.016-0.731-1.457-1.804-1.457c-0.485,0-0.828,0.044-1,0.092
			v2.853h1.037C293.884,17.882,294.566,17.287,294.566,16.394z"/>
		<g>
			<path fill="#FFFFFF" d="M33.241,47.565V14.024L20.754,47.565h-4.221L4.104,14.229v33.337H0V10.604h6.859l11.784,32.724
				l11.784-32.724h6.918v36.962H33.241z"/>
			<path fill="#FFFFFF" d="M67.831,45.677c-1.642,1.531-4.847,2.296-9.615,2.296h-2.345c-4.495,0-7.583-0.781-9.263-2.348
				c-1.682-1.564-2.521-4.425-2.521-8.576V10.604h3.987v26.7c0,3.029,0.527,4.97,1.582,5.819c1.094,0.852,3.439,1.276,7.035,1.276
				h1.994c3.204,0,5.276-0.476,6.214-1.43c0.938-0.951,1.407-2.977,1.407-6.074V10.604h3.986v26.495
				C70.293,41.354,69.473,44.213,67.831,45.677z"/>
			<path fill="#FFFFFF" d="M77.093,47.565V10.604h4.104v33.081h16.709v3.881H77.093z"/>
			<path fill="#FFFFFF" d="M105.644,14.177v33.388h-3.986V14.177H90.753v-3.574h25.972v3.574H105.644z"/>
			<path fill="#FFFFFF" d="M121.767,47.565V10.604h3.986v36.962H121.767z"/>
			<path fill="#FFFFFF" d="M158.173,44.042c-1.72,2.35-4.612,3.523-8.678,3.523h-16.356V10.604h16.474
				c4.105,0,6.978,1.039,8.619,3.114c1.642,2.111,2.462,5.378,2.462,9.802v9.853C160.693,38.171,159.853,41.728,158.173,44.042z
				 M156.59,24.388c0-3.369-0.45-5.922-1.348-7.658c-0.938-1.702-2.639-2.553-5.102-2.553h-12.897v29.814h12.369
				c2.619,0,4.437-0.868,5.452-2.603c1.017-1.77,1.525-4.392,1.525-7.863V24.388z"/>
			<path fill="#FFFFFF" d="M240.834,14.177v33.388h-3.986V14.177h-10.904v-3.574h25.972v3.574H240.834z"/>
			<path fill="#FFFFFF" d="M277.534,45.677c-1.524,1.531-4.339,2.296-8.442,2.296h-2.11c-4.338,0-7.445-0.577-9.321-1.735
				c-1.876-1.156-2.814-3.691-2.814-7.605v-2.655h3.752v2.399c0,2.655,0.469,4.306,1.407,4.951c0.938,0.715,3.01,1.072,6.215,1.072
				h2.228c3.204,0,5.218-0.391,6.038-1.174c0.821-0.816,1.231-2.672,1.231-5.564v-1.123c0-2.586-0.586-4.238-1.759-4.953
				c-1.173-0.714-3.597-1.155-7.27-1.326c-4.652-0.136-7.72-0.833-9.204-2.094c-1.447-1.259-2.17-3.352-2.17-6.278v-1.43
				c0-4.015,0.646-6.721,1.936-8.117c1.328-1.43,4.104-2.145,8.324-2.145h2.697c4.846,0,7.914,0.766,9.204,2.297
				c1.368,1.6,2.052,4.221,2.052,7.862v0.255h-3.752v-1.123c0-2.246-0.567-3.76-1.7-4.543c-1.134-0.783-3.088-1.174-5.863-1.174
				h-1.992c-2.658,0-4.456,0.375-5.395,1.123c-0.938,0.783-1.406,2.315-1.406,4.595v1.633c0,1.907,0.331,3.302,0.996,4.187
				c0.664,0.885,3.185,1.429,7.563,1.633c5.666,0.273,9.048,1.141,10.143,2.604c1.133,1.498,1.699,3.778,1.699,6.841v1.327
				C279.82,41.558,279.059,44.213,277.534,45.677z"/>
		</g>
	</g>
	<g>
		<linearGradient id="SVGID_1_" gradientUnits="userSpaceOnUse" x1="203.8311" y1="55.3721" x2="175.6519" y2="6.5643">
			<stop  offset="0.3011" style="stop-color:#D04F92"/>
			<stop  offset="0.3969" style="stop-color:#BC5A9B"/>
			<stop  offset="0.5935" style="stop-color:#8875B3"/>
			<stop  offset="0.8717" style="stop-color:#34A0D9"/>
			<stop  offset="0.914" style="stop-color:#27A7DF"/>
		</linearGradient>
		<path fill-rule="evenodd" clip-rule="evenodd" fill="url(#SVGID_1_)" d="M195.068,0.009c15.955,0.397-8.684,19.13-8.684,35.185
			s24.738,22.977,8.684,22.977s-29.08-13.026-29.08-29.081C165.988,13.035,179.113-0.395,195.068,0.009z"/>
		<path fill-rule="evenodd" clip-rule="evenodd" fill="#EEE81C" d="M195.419,55.688c14.872,0,27.005-12.133,27.005-26.996
			c0-14.879-12.133-27.005-27.005-27.005c-14.871,0-27.004,12.125-27.004,27.005C168.415,43.556,180.548,55.688,195.419,55.688z"/>
		<path fill-rule="evenodd" clip-rule="evenodd" fill="#EBE113" d="M189.354,44.602c-1.732-2.701-2.969-5.829-2.969-9.408
			c0-2.541,0.731-5.913,1.885-8.478c4.731,3.747,10.324,6.845,16.749,7.135C203.82,39.017,200.082,44.762,189.354,44.602z"/>
		<path fill-rule="evenodd" clip-rule="evenodd" fill="#C7C92F" d="M204.927,15.965c-0.068-0.031-0.152-0.077-0.259-0.138
			c-3.205-1.946-6.28-2.595-9.073-2.32c0.458-0.755,0.946-1.496,1.419-2.258c0.817-1.328,1.58-2.664,2.107-3.747
			c0.679,0.343,3.433,1.771,5.806,3.479V15.965z"/>
		<path fill-rule="evenodd" clip-rule="evenodd" fill="#F5F19B" d="M203.089,41.938l4.006,1.466c2.067,0.701,3.67-1.229,3.67-1.229
			c2.823-3.525,2.408-9.073,2.408-9.073c1.709-0.397,3.368-0.953,4.948-1.64l0.007,0.008c-0.038,0.358-0.077,0.641-0.122,0.999
			c0,0.022-0.008,0.038-0.008,0.061l0,0c-0.9,6.41-4.486,11.966-9.576,15.491l0,0c-3.533,2.449-7.799,3.922-12.407,4.029
			c-1.748-1.595-3.357-3.16-4.876-5.007C196.701,46.449,200.517,44.533,203.089,41.938L203.089,41.938z M190.826,46.646
			c-0.054-0.068-0.107-0.137-0.161-0.206l0,0C190.696,46.486,190.757,46.562,190.826,46.646z"/>
		<path fill-rule="evenodd" clip-rule="evenodd" fill="#ED6D26" d="M186.599,37.742c0.549,0.016,1.061-0.169,4.762-1.679
			c0,0,3.212-1.557,6.211,1.106c0.999,0.915,2.243,2.258,3.563,3.716c-2.427,2.243-6.127,3.8-11.781,3.716
			C188.041,42.564,187.018,40.275,186.599,37.742z"/>
		<path fill-rule="evenodd" clip-rule="evenodd" fill="#F48320" d="M197.938,53.773c0,0,20.519-1.595,21.823-24.188
			c0,0,2.953-0.099,4.388,0.306c0,0-0.908,22.304-23.73,26.66l0,0C200.165,55.857,199.227,54.934,197.938,53.773L197.938,53.773z"/>
		<path fill-rule="evenodd" clip-rule="evenodd" fill="#ED6D26" d="M183.409,23.053c-1.954,4.029-3.053,13.185,3.189,14.689l0,0l0,0
			c-0.138-0.824-0.214-1.679-0.214-2.549c0-2.541,0.618-5.143,1.587-7.722c0.1-0.251,0.199-0.504,0.298-0.755
			C188.27,26.716,185.469,24.664,183.409,23.053z"/>
		<path fill-rule="evenodd" clip-rule="evenodd" fill="#75BF45" d="M189.208,24.564c0,0-1.647-1.374-5.799-1.511v-0.008
			c2.175-4.83,6.608-8.99,12.142-9.539c0.007,0.007,0.028-0.006,0.044,0.001C191.101,20.573,190.849,21.359,189.208,24.564z"/>
		<path fill-rule="evenodd" clip-rule="evenodd" fill="#913523" d="M188.27,26.716c0,0-2.801-2.052-4.86-3.663
			c0.442,0,3.944,0.152,5.799,1.511L188.27,26.716z"/>
		<path fill-rule="evenodd" clip-rule="evenodd" fill="#EE5D3E" d="M189.62,45.006c0,0-7.89,0.825-11.606,0.412
			c0.52,0.656,7.318,9.812,19.924,8.355c-1.525-1.381-2.411-2.129-3.503-3.205c-0.381-0.365-0.755-0.731-1.106-1.09
			c-0.625-0.634-1.189-1.259-1.686-1.832C190.62,46.449,189.902,45.457,189.62,45.006z"/>
		<path fill-rule="evenodd" clip-rule="evenodd" fill="#F69573" d="M196.015,52.05c-0.016-0.009-0.068-0.054-0.076-0.069
			c-0.534-0.465-0.984-0.9-1.504-1.412c-0.381-0.365-0.755-0.731-1.106-1.09c-0.625-0.634-1.189-1.259-1.686-1.832
			c-0.244-0.283-0.412-0.474-0.527-0.61c-2.738,0.29-5.898,0.267-9.545-0.168c3.838,3.235,8.79,5.182,14.185,5.182H196.015z"/>
		<path fill-rule="evenodd" clip-rule="evenodd" fill="#FFFFF9" d="M179.273,50.333c-0.008-0.009-0.023-0.024-0.039-0.031
			c-0.145-0.106-0.289-0.221-0.435-0.336c-0.022-0.016-0.053-0.038-0.076-0.061c-0.145-0.115-0.29-0.229-0.435-0.344
			c-0.031-0.03-0.061-0.054-0.092-0.083c-0.145-0.115-0.29-0.237-0.435-0.359c-0.016-0.016-0.03-0.03-0.054-0.046
			c-0.13-0.122-0.267-0.235-0.396-0.359c-0.022-0.022-0.046-0.036-0.068-0.061c-0.138-0.122-0.275-0.251-0.405-0.382
			c-0.03-0.029-0.061-0.052-0.091-0.083c-0.138-0.129-0.268-0.26-0.405-0.39c-0.015-0.023-0.038-0.046-0.061-0.062
			c-0.122-0.129-0.244-0.251-0.366-0.381c-0.023-0.016-0.038-0.038-0.054-0.062c-0.13-0.129-0.26-0.267-0.39-0.403
			c-0.022-0.031-0.053-0.062-0.076-0.093c-0.129-0.137-0.252-0.282-0.373-0.419c-0.023-0.023-0.039-0.046-0.062-0.068
			c-0.114-0.138-0.236-0.275-0.352-0.413c-0.007-0.015-0.022-0.03-0.037-0.054c-0.123-0.145-0.237-0.289-0.359-0.442
			c-0.022-0.029-0.046-0.061-0.068-0.091c-0.114-0.146-0.229-0.29-0.343-0.443c-0.016-0.022-0.039-0.053-0.062-0.076
			c-0.106-0.152-0.214-0.297-0.32-0.449l-0.023-0.031c-0.114-0.16-0.221-0.32-0.328-0.473c-0.022-0.031-0.045-0.069-0.068-0.099
			c-0.1-0.153-0.206-0.313-0.305-0.467c-0.023-0.029-0.038-0.061-0.054-0.091c-0.107-0.16-0.214-0.32-0.312-0.489v-0.007
			c-0.107-0.169-0.207-0.336-0.306-0.512c-0.016-0.022-0.03-0.053-0.046-0.084c-0.099-0.167-0.19-0.327-0.282-0.496
			c-0.016-0.029-0.03-0.061-0.046-0.091c-0.099-0.176-0.19-0.352-0.274-0.527l-0.008-0.007c-0.092-0.176-0.176-0.352-0.26-0.527
			c-0.015-0.022-0.03-0.053-0.046-0.083c-0.084-0.176-0.16-0.344-0.236-0.52c-0.016-0.029-0.03-0.067-0.046-0.099
			c-0.084-0.176-0.16-0.359-0.236-0.534c-0.008-0.015-0.016-0.03-0.023-0.046c-0.067-0.176-0.137-0.343-0.205-0.519
			c-0.016-0.031-0.023-0.062-0.038-0.084c-0.069-0.183-0.138-0.358-0.207-0.542c-0.008-0.03-0.022-0.069-0.038-0.107
			c-0.061-0.183-0.13-0.365-0.19-0.549c-0.007-0.016-0.015-0.038-0.022-0.061c-0.054-0.176-0.115-0.352-0.168-0.534
			c-0.008-0.023-0.022-0.054-0.03-0.077c-0.055-0.183-0.107-0.365-0.16-0.557c-0.016-0.038-0.023-0.076-0.039-0.115
			c-0.045-0.183-0.099-0.374-0.152-0.563c0-0.023-0.008-0.046-0.016-0.068c-0.045-0.185-0.091-0.367-0.137-0.558
			c0-0.023-0.008-0.046-0.016-0.069c-0.038-0.183-0.084-0.374-0.122-0.572c-0.008-0.037-0.016-0.075-0.022-0.122
			c-0.038-0.19-0.076-0.381-0.114-0.571c0-0.031-0.008-0.062-0.016-0.092c-0.031-0.184-0.062-0.375-0.092-0.564
			c0-0.016-0.008-0.038-0.008-0.054c-0.03-0.198-0.061-0.397-0.084-0.596c-0.008-0.038-0.016-0.076-0.016-0.114
			c-0.022-0.199-0.045-0.389-0.067-0.588c0-0.038-0.008-0.076-0.008-0.105c-0.023-0.199-0.039-0.391-0.054-0.589l-0.008-0.038
			c-0.016-0.205-0.023-0.403-0.038-0.609c0-0.038,0-0.077,0-0.115c-0.016-0.206-0.022-0.404-0.022-0.603
			c-0.008-0.038-0.008-0.076-0.008-0.107c0-0.213-0.008-0.412-0.008-0.625c0-0.115,0-0.229,0.008-0.344c0-0.03,0-0.068,0-0.099
			c0-0.083,0-0.168,0-0.251c0.008-0.039,0.008-0.069,0.008-0.107c0-0.114,0.007-0.229,0.007-0.335V27.54
			c0.008-0.106,0.016-0.214,0.016-0.32c0.008-0.039,0.008-0.077,0.008-0.115c0.007-0.084,0.015-0.16,0.015-0.244
			c0.008-0.03,0.008-0.069,0.008-0.099c0.008-0.107,0.016-0.221,0.023-0.336l0.007-0.03c0.008-0.1,0.016-0.207,0.023-0.306
			c0.008-0.03,0.008-0.068,0.016-0.106c0.008-0.076,0.015-0.153,0.022-0.237c0.008-0.03,0.008-0.068,0.016-0.106
			c0.008-0.108,0.022-0.214,0.037-0.321c0-0.022,0-0.046,0.008-0.061c0.008-0.091,0.023-0.183,0.031-0.274l0.015-0.107
			c0.016-0.084,0.023-0.168,0.039-0.251c0.007-0.023,0.007-0.054,0.015-0.084c0.016-0.107,0.03-0.213,0.054-0.328
			c0-0.016,0.007-0.038,0.007-0.061c0.016-0.083,0.031-0.176,0.047-0.267c0.007-0.031,0.015-0.069,0.022-0.099
			c0.016-0.084,0.03-0.168,0.046-0.252l0.015-0.084c0.023-0.107,0.038-0.214,0.062-0.32c0.008-0.023,0.016-0.046,0.016-0.061
			c0.022-0.084,0.038-0.176,0.053-0.259c0.008-0.039,0.023-0.077,0.03-0.115c0.016-0.077,0.031-0.153,0.054-0.229
			c0.008-0.031,0.016-0.061,0.023-0.091c0.022-0.107,0.046-0.207,0.076-0.313c0-0.022,0.007-0.045,0.015-0.068
			c0.023-0.084,0.046-0.169,0.069-0.252l0.022-0.099c0.023-0.077,0.046-0.16,0.068-0.244c0.008-0.022,0.016-0.054,0.023-0.076
			c0.03-0.106,0.062-0.214,0.092-0.313c0-0.023,0.008-0.046,0.015-0.069c0.03-0.083,0.054-0.168,0.077-0.244l0.03-0.099
			c0.03-0.084,0.053-0.168,0.083-0.252c0-0.022,0.008-0.045,0.016-0.061c0.039-0.107,0.069-0.206,0.107-0.313
			c0.007-0.023,0.015-0.045,0.022-0.076c0.03-0.076,0.054-0.152,0.084-0.236l0.031-0.092c0.029-0.083,0.061-0.16,0.091-0.244
			c0.008-0.023,0.016-0.046,0.023-0.061c0.038-0.107,0.075-0.207,0.114-0.306c0.015-0.023,0.022-0.053,0.03-0.084
			c0.031-0.068,0.062-0.145,0.091-0.213c0.008-0.039,0.023-0.069,0.039-0.107c0.03-0.077,0.069-0.153,0.099-0.229
			c0.008-0.023,0.016-0.046,0.023-0.069c0.046-0.099,0.084-0.19,0.13-0.29c0.007-0.031,0.022-0.062,0.038-0.092
			c0.03-0.069,0.061-0.138,0.092-0.206c0.015-0.039,0.03-0.069,0.045-0.099c0.031-0.077,0.062-0.146,0.1-0.222
			c0.016-0.031,0.03-0.069,0.046-0.099c0.038-0.084,0.084-0.176,0.122-0.26c0.016-0.031,0.03-0.062,0.046-0.092
			c0.03-0.068,0.061-0.13,0.099-0.199c0.016-0.03,0.031-0.068,0.046-0.099c0.046-0.091,0.092-0.176,0.138-0.259l0.008-0.023
			c0.053-0.099,0.099-0.19,0.152-0.29c0.016-0.023,0.03-0.053,0.046-0.076c0.03-0.076,0.068-0.146,0.107-0.213
			c0.015-0.023,0.03-0.054,0.045-0.084c0.054-0.084,0.1-0.175,0.152-0.268l0.023-0.03c0.046-0.092,0.092-0.176,0.145-0.26
			c0.016-0.031,0.03-0.054,0.054-0.084c0.031-0.061,0.069-0.122,0.106-0.184c0.023-0.038,0.038-0.068,0.062-0.106
			c0.054-0.083,0.106-0.176,0.16-0.259l0.023-0.039c0.053-0.083,0.099-0.16,0.152-0.236c0.016-0.03,0.03-0.053,0.054-0.084
			c0.037-0.068,0.083-0.137,0.13-0.198l0.045-0.068c0.054-0.092,0.115-0.184,0.176-0.268c0.007-0.015,0.022-0.03,0.03-0.053
			c0.054-0.069,0.107-0.146,0.152-0.213l0.054-0.077c0.046-0.069,0.092-0.137,0.138-0.198l0.054-0.077
			c0.061-0.083,0.129-0.167,0.19-0.259l0.022-0.023c0.038-0.061,0.084-0.115,0.122-0.176V12.5c-0.1,0.13-0.198,0.268-0.298,0.397
			c-0.938,1.343-3.654,5.677-3.945,11.278c0.016-0.039,0.031-0.068,0.039-0.106c-0.008,0.038-0.016,0.077-0.016,0.114h-0.008
			c-0.365,1.732-0.557,3.533-0.557,5.365c0,10.178,5.838,19,14.338,23.303C181.921,52.134,180.555,51.286,179.273,50.333z"/>
		<path fill-rule="evenodd" clip-rule="evenodd" fill="#EE5D3E" d="M199.09,55.445c-0.244-0.169-0.488-0.352-0.68-0.58
			c0,0-11.881,1.137-20.663-8.729c-7.837-9.043-7.005-20.282-7.066-21.35v-0.008c0-0.008-0.983-0.519-1.114-0.603
			c-0.357,1.732-0.541,3.541-0.541,5.373c0,10.4,6.089,19.381,14.896,23.579c3.395,1.617,7.202,2.586,11.209,2.586
			C196.435,55.712,197.831,55.628,199.09,55.445z"/>
		<path fill-rule="evenodd" clip-rule="evenodd" fill="#F58721" d="M191.749,36.728c0,0,2.693-1.298,5.204,0.923
			c0.847,0.786,1.907,1.9,3.037,3.144c0,0-4.808,3.587-10.256,3.045c-1.557-2.343-2.083-4.556-2.267-5.487
			C188.308,38.177,191.024,37.024,191.749,36.728z"/>
		<path fill-rule="evenodd" clip-rule="evenodd" fill="#DADB23" d="M200.219,2.114c10.92,1.96,19.557,10.484,21.694,21.343h-4.464
			h1.785c-2.48-9.126-9.836-16.246-19.1-18.39C200.431,3.959,200.555,2.907,200.219,2.114z"/>
		<path fill-rule="evenodd" clip-rule="evenodd" fill="#EBE113" d="M200.135,5.061c9.264,2.144,16.619,9.263,19.1,18.39h-1.785
			c-1.626-6.082-5.708-11.156-11.118-14.094c-1.305-0.702-3.098-1.572-6.799-2.716C199.784,6.083,199.982,5.556,200.135,5.061z"/>
		<path fill-rule="evenodd" clip-rule="evenodd" fill="#0F8141" d="M195.595,13.507c0.152-0.237,1.534-2.373,2.526-4.12
			c0.449-0.809,0.801-1.481,1-1.877c-1.489-0.748-2.756-1.274-3.755-1.671c-1.58-0.626-2.541-0.901-2.969-1.053
			c0.588-0.229,2.533-0.787,7.745,0.274c0,0,0.587-1.803,0.084-2.945c-10.469-1.915-20.641,2.373-26.715,10.782
			c-0.938,1.343-3.654,5.677-3.945,11.278c2.869-8.538,7.326-5.852,13.843-1.129l0,0l0.008-0.008
			c0.221-0.48,0.458-0.945,0.709-1.411c0.168-0.321,0.344-0.633,0.55-0.908v-0.008C187.095,16.926,190.963,13.958,195.595,13.507z"
			/>
		<path fill-rule="evenodd" clip-rule="evenodd" fill="#993622" d="M170.681,24.786c0,0,0-0.008,0-0.016
			c0,0.008,0.008,0.008,0.016,0.008c2.075,0.931,6.821,2.128,12.713-1.725c-1.954,4.029-3.053,13.185,3.189,14.689l0,0
			c0.45,2.709,1.924,5.619,3.358,7.762c0,0-5.434,0.644-11.943-0.086l0,0l0,0c0.52,0.656,7.318,9.812,19.924,8.355
			c0,0,0.004,0.004,0.011,0.01c0.163,0.13,1.293,1.178,1.646,1.585l-0.504,0.077c0,0-0.435-0.275-0.68-0.573
			c0,0-11.888,1.13-20.663-8.729C169.902,37.093,170.719,25.846,170.681,24.786z"/>
		<path fill-rule="evenodd" clip-rule="evenodd" fill="#FFFFF9" d="M206.743,12.21c2.061,1.687,16.749,14.85,1.679,35.811
			c0.067-0.049,0.102-0.066,0.176-0.121c5.821-4.114,9.621-10.897,9.621-18.566c0-8.454-4.616-15.833-11.476-19.74V12.21z"/>
		<path fill-rule="evenodd" clip-rule="evenodd" fill="#75BF45" d="M199.121,7.51c-1.489-0.748-2.756-1.274-3.755-1.671
			c-1.58-0.626-2.541-0.901-2.969-1.053c0.588-0.229,2.513-0.814,7.745,0.274C200.08,5.314,199.578,6.602,199.121,7.51z"/>
		<path fill-rule="evenodd" clip-rule="evenodd" fill="#FAF9DE" d="M206.613,17.75c2.061,0.152,6.929,9.149,6.57,17.146
			c-0.1,1.847-0.558,4.952-2.419,7.279c0,0-1.603,1.931-3.67,1.229l-0.497-0.184l-3.509-1.282
			C211.505,33.454,206.613,17.75,206.613,17.75z"/>
		<path fill-rule="evenodd" clip-rule="evenodd" fill="#FFFFF9" d="M205.019,33.851L205.019,33.851l1.374,0.03
			c2.136,0,4.776-0.351,6.791-0.778l0,0c-1.816-3.945-7.547-7.035-7.875-7.226C205.309,25.876,205.995,29.676,205.019,33.851z"/>
		<path fill-rule="evenodd" clip-rule="evenodd" fill="#4E2D17" d="M169.566,24.175c0,0,5.914,4.197,13.843-1.122
			C176.893,18.323,172.436,15.637,169.566,24.175z"/>
	</g>
</g>
</svg>
